<svg width="176" height="178" viewBox="0 0 176 178" fill="none" xmlns="http://www.w3.org/2000/svg">
<path d="M137.907 178H38.0927C17.058 178 0 160.444 0 138.796V39.2039C0 17.5556 17.058 0 38.0927 0H137.901C158.942 0 176 17.5556 176 39.2039V138.79C176 160.444 158.942 178 137.907 178Z" fill="black"/>
<path d="M87.2194 103.042C77.1701 102.471 68.9065 98.9462 62.4286 92.4683C55.5714 85.611 52.0938 77.3219 52 67.6092V67.3109C52 64.5493 52.716 62.4525 54.1437 61.0248C55.5714 59.5971 57.2889 58.8811 59.2877 58.8811C61.2864 58.8811 63.0039 59.5971 64.4316 61.0248C65.8593 62.4525 66.5753 64.5024 66.5753 67.1703V67.4686C66.5753 67.899 66.5497 68.3252 66.5029 68.7557C66.7884 73.9934 68.8341 78.4939 72.6484 82.257C76.7908 86.3995 81.7899 88.4707 87.6499 88.4707H87.9354C93.7954 88.4707 98.7944 86.3995 102.937 82.257C106.747 78.4939 108.797 73.9934 109.082 68.7557C109.036 68.3252 109.01 67.899 109.01 67.4686V67.1703C109.01 64.5024 109.726 62.4567 111.154 61.0248C112.581 59.5971 114.295 58.8811 116.298 58.8811C118.296 58.8811 120.014 59.5971 121.442 61.0248C122.869 62.4525 123.585 64.5493 123.585 67.3109V67.6092C123.487 77.3261 120.014 85.611 113.157 92.4683C106.679 98.9419 98.4151 102.471 88.3701 103.042H87.2194Z" fill="white"/>
<path d="M87.5 72C94.4036 72 100 66.4036 100 59.5C100 52.5964 94.4036 47 87.5 47C80.5964 47 75 52.5964 75 59.5C75 66.4036 80.5964 72 87.5 72Z" fill="white"/>
<rect x="66" y="115.857" width="42.6179" height="16" rx="8" fill="white"/>
</svg>
